<svg id="visual" viewBox="0 0 900 600" width="900" height="600" xmlns="http://www.w3.org/2000/svg" xmlns:xlink="http://www.w3.org/1999/xlink" version="1.1"><path d="M0 25L21.5 31C43 37 86 49 128.8 49C171.7 49 214.3 37 257.2 38C300 39 343 53 385.8 54C428.7 55 471.3 43 514.2 35C557 27 600 23 642.8 28C685.7 33 728.3 47 771.2 54C814 61 857 61 878.5 61L900 61L900 0L878.5 0C857 0 814 0 771.2 0C728.3 0 685.7 0 642.8 0C600 0 557 0 514.2 0C471.3 0 428.7 0 385.8 0C343 0 300 0 257.2 0C214.3 0 171.7 0 128.8 0C86 0 43 0 21.5 0L0 0Z" fill="#c350c2"></path><path d="M0 193L21.5 185C43 177 86 161 128.8 137C171.7 113 214.3 81 257.2 94C300 107 343 165 385.8 182C428.7 199 471.3 175 514.2 144C557 113 600 75 642.8 98C685.7 121 728.3 205 771.2 231C814 257 857 225 878.5 209L900 193L900 59L878.5 59C857 59 814 59 771.2 52C728.3 45 685.7 31 642.8 26C600 21 557 25 514.2 33C471.3 41 428.7 53 385.8 52C343 51 300 37 257.2 36C214.3 35 171.7 47 128.8 47C86 47 43 35 21.5 29L0 23Z" fill="#be47bd"></path><path d="M0 211L21.5 211C43 211 86 211 128.8 222C171.7 233 214.3 255 257.2 260C300 265 343 253 385.8 241C428.7 229 471.3 217 514.2 217C557 217 600 229 642.8 245C685.7 261 728.3 281 771.2 282C814 283 857 265 878.5 256L900 247L900 191L878.5 207C857 223 814 255 771.2 229C728.3 203 685.7 119 642.8 96C600 73 557 111 514.2 142C471.3 173 428.7 197 385.8 180C343 163 300 105 257.2 92C214.3 79 171.7 111 128.8 135C86 159 43 175 21.5 183L0 191Z" fill="#b93eb9"></path><path d="M0 253L21.5 253C43 253 86 253 128.8 264C171.7 275 214.3 297 257.2 305C300 313 343 307 385.8 300C428.7 293 471.3 285 514.2 280C557 275 600 273 642.8 297C685.7 321 728.3 371 771.2 370C814 369 857 317 878.5 291L900 265L900 245L878.5 254C857 263 814 281 771.2 280C728.3 279 685.7 259 642.8 243C600 227 557 215 514.2 215C471.3 215 428.7 227 385.8 239C343 251 300 263 257.2 258C214.3 253 171.7 231 128.8 220C86 209 43 209 21.5 209L0 209Z" fill="#b434b4"></path><path d="M0 277L21.5 275C43 273 86 269 128.8 285C171.7 301 214.3 337 257.2 351C300 365 343 357 385.8 346C428.7 335 471.3 321 514.2 314C557 307 600 307 642.8 326C685.7 345 728.3 383 771.2 377C814 371 857 321 878.5 296L900 271L900 263L878.5 289C857 315 814 367 771.2 368C728.3 369 685.7 319 642.8 295C600 271 557 273 514.2 278C471.3 283 428.7 291 385.8 298C343 305 300 311 257.2 303C214.3 295 171.7 273 128.8 262C86 251 43 251 21.5 251L0 251Z" fill="#af28af"></path><path d="M0 331L21.5 328C43 325 86 319 128.8 330C171.7 341 214.3 369 257.2 383C300 397 343 397 385.8 387C428.7 377 471.3 357 514.2 358C557 359 600 381 642.8 403C685.7 425 728.3 447 771.2 435C814 423 857 377 878.5 354L900 331L900 269L878.5 294C857 319 814 369 771.2 375C728.3 381 685.7 343 642.8 324C600 305 557 305 514.2 312C471.3 319 428.7 333 385.8 344C343 355 300 363 257.2 349C214.3 335 171.7 299 128.8 283C86 267 43 271 21.5 273L0 275Z" fill="#aa1aaa"></path><path d="M0 331L21.5 333C43 335 86 339 128.8 356C171.7 373 214.3 403 257.2 418C300 433 343 433 385.8 417C428.7 401 471.3 369 514.2 370C557 371 600 405 642.8 427C685.7 449 728.3 459 771.2 442C814 425 857 381 878.5 359L900 337L900 329L878.5 352C857 375 814 421 771.2 433C728.3 445 685.7 423 642.8 401C600 379 557 357 514.2 356C471.3 355 428.7 375 385.8 385C343 395 300 395 257.2 381C214.3 367 171.7 339 128.8 328C86 317 43 323 21.5 326L0 329Z" fill="#a410a4"></path><path d="M0 373L21.5 369C43 365 86 357 128.8 374C171.7 391 214.3 433 257.2 451C300 469 343 463 385.8 448C428.7 433 471.3 409 514.2 408C557 407 600 429 642.8 451C685.7 473 728.3 495 771.2 478C814 461 857 405 878.5 377L900 349L900 335L878.5 357C857 379 814 423 771.2 440C728.3 457 685.7 447 642.8 425C600 403 557 369 514.2 368C471.3 367 428.7 399 385.8 415C343 431 300 431 257.2 416C214.3 401 171.7 371 128.8 354C86 337 43 333 21.5 331L0 329Z" fill="#9b0f9b"></path><path d="M0 415L21.5 414C43 413 86 411 128.8 429C171.7 447 214.3 485 257.2 498C300 511 343 499 385.8 476C428.7 453 471.3 419 514.2 420C557 421 600 457 642.8 483C685.7 509 728.3 525 771.2 512C814 499 857 457 878.5 436L900 415L900 347L878.5 375C857 403 814 459 771.2 476C728.3 493 685.7 471 642.8 449C600 427 557 405 514.2 406C471.3 407 428.7 431 385.8 446C343 461 300 467 257.2 449C214.3 431 171.7 389 128.8 372C86 355 43 363 21.5 367L0 371Z" fill="#930f93"></path><path d="M0 463L21.5 461C43 459 86 455 128.8 471C171.7 487 214.3 523 257.2 533C300 543 343 527 385.8 503C428.7 479 471.3 447 514.2 444C557 441 600 467 642.8 489C685.7 511 728.3 529 771.2 517C814 505 857 463 878.5 442L900 421L900 413L878.5 434C857 455 814 497 771.2 510C728.3 523 685.7 507 642.8 481C600 455 557 419 514.2 418C471.3 417 428.7 451 385.8 474C343 497 300 509 257.2 496C214.3 483 171.7 445 128.8 427C86 409 43 411 21.5 412L0 413Z" fill="#8b0e8b"></path><path d="M0 541L21.5 544C43 547 86 553 128.8 561C171.7 569 214.3 579 257.2 580C300 581 343 573 385.8 571C428.7 569 471.3 573 514.2 573C557 573 600 569 642.8 567C685.7 565 728.3 565 771.2 563C814 561 857 557 878.5 555L900 553L900 419L878.5 440C857 461 814 503 771.2 515C728.3 527 685.7 509 642.8 487C600 465 557 439 514.2 442C471.3 445 428.7 477 385.8 501C343 525 300 541 257.2 531C214.3 521 171.7 485 128.8 469C86 453 43 457 21.5 459L0 461Z" fill="#830e83"></path><path d="M0 601L21.5 601C43 601 86 601 128.8 601C171.7 601 214.3 601 257.2 601C300 601 343 601 385.8 601C428.7 601 471.3 601 514.2 601C557 601 600 601 642.8 601C685.7 601 728.3 601 771.2 601C814 601 857 601 878.5 601L900 601L900 551L878.5 553C857 555 814 559 771.2 561C728.3 563 685.7 563 642.8 565C600 567 557 571 514.2 571C471.3 571 428.7 567 385.8 569C343 571 300 579 257.2 578C214.3 577 171.7 567 128.8 559C86 551 43 545 21.5 542L0 539Z" fill="#7b0d7b"></path></svg>